<svg xmlns="http://www.w3.org/2000/svg" viewBox="0 0 200 48" fill="none">
  <!-- Знак-молния слева, центрирован по вертикали в x=4..36, y=8..40 -->
  <path d="M22 6 L11 22 L19 22 L14 38 L26 18 L20 18 Z" fill="#1e2f3a"/>
  <!-- ГРОМ через path: сетка, шаг ~32, начиная с x=46 -->
  <g fill="#1e2f3a" fill-rule="evenodd">
    <!-- Г x=46..70 -->
    <path d="M46 8 L46 40 L54 40 L54 24 L66 24 L66 16 L54 16 L54 8 Z"/>
    <!-- Р x=74..98 -->
    <path d="M74 8 L74 40 L82 40 L82 28 L90 28 C98 28 102 24 102 18 C102 12 98 8 90 8 Z M82 16 L90 16 C92 16 94 16 94 18 C94 20 92 21 90 21 L82 21 Z"/>
    <!-- О x=102..134 -->
    <path d="M118 8 C108 8 102 14 102 24 C102 34 108 40 118 40 C128 40 134 34 134 24 C134 14 128 8 118 8 Z M118 16 C124 16 126 20 126 24 C126 28 124 32 118 32 C112 32 110 28 110 24 C110 20 112 16 118 16 Z"/>
    <!-- М x=138..186 : классическая кириллическая — две внешние ноги + V между ними до середины -->
    <path fill-rule="evenodd" d="M138 8 L138 40 L150 40 L150 8 Z M174 8 L174 40 L186 40 L186 8 Z M150 8 L162 24 L174 8 Z M150 24 L174 24 L174 40 L150 40 Z"/>
  </g>
</svg>